<?xml version="1.0" encoding="UTF-8" standalone="no"?>
<svg
   viewBox="0 0 526 160"
   height="160"
   width="526"
   version="1.1"
   id="svg154"
   xmlns="http://www.w3.org/2000/svg"
   xmlns:svg="http://www.w3.org/2000/svg">
  <defs
     id="defs158" />
  <path
     d="m 158.75,80.05 c 0,43.5 -35.3,78.7 -78.7,78.7 -43.5,0 -78.8,-35.3 -78.8,-78.7 0,-43.5 35.3,-78.8 78.8,-78.8 43.5,0 78.7,35.3 78.7,78.8 z"
     id="path2"
     style="fill:none;stroke:#ffffff;stroke-width:2.5" />
  <path
     d="m 215.72231,43.421017 h 11.2323 v 73.566033 h 40.42518 v 9.45293 h -51.65748 z"
     id="path824"
     style="font-size:113.88px;line-height:1.25;fill:#ffffff;stroke-width:2.84699" />
  <path
     d="m 308.80586,51.038966 q -12.2332,0 -19.46191,9.119296 -7.17311,9.119297 -7.17311,24.855644 0,15.680744 7.17311,24.800034 7.22871,9.1193 19.46191,9.1193 12.2332,0 19.3507,-9.1193 7.17311,-9.11929 7.17311,-24.800034 0,-15.736347 -7.17311,-24.855644 -7.1175,-9.119296 -19.3507,-9.119296 z m 0,-9.119297 q 17.46012,0 27.91394,11.732754 10.45383,11.677148 10.45383,31.361483 0,19.628734 -10.45383,31.361484 -10.45382,11.67715 -27.91394,11.67715 -17.51572,0 -28.02516,-11.67715 -10.45382,-11.67715 -10.45382,-31.361484 0,-19.684335 10.45382,-31.361483 10.50944,-11.732754 28.02516,-11.732754 z"
     id="path826"
     style="font-size:113.88px;line-height:1.25;fill:#ffffff;stroke-width:2.84699" />
  <path
     d="M 421.35133,114.59601 V 92.298223 h -18.3498 v -9.230508 h 29.4709 v 35.643105 q -6.50584,4.61525 -14.34621,7.00629 -7.84038,2.33543 -16.73725,2.33543 -19.46191,0 -30.4718,-11.34352 -10.95427,-11.39912 -10.95427,-31.695114 0,-20.351601 10.95427,-31.695116 11.00989,-11.399121 30.4718,-11.399121 8.1184,0 15.40271,2.001797 7.33993,2.001797 13.51213,5.894179 v 11.955176 q -6.22781,-5.282519 -13.2341,-7.951582 -7.00629,-2.669062 -14.73545,-2.669062 -15.2359,0 -22.90945,8.507636 -7.61795,8.507637 -7.61795,25.356093 0,16.792854 7.61795,25.300484 7.67355,8.50764 22.90945,8.50764 5.94979,0 10.62065,-1.0009 4.67086,-1.0565 8.39642,-3.22512 z"
     id="path828"
     style="font-size:113.88px;line-height:1.25;fill:#ffffff;stroke-width:2.84699" />
  <path
     d="m 486.68776,51.038966 q -12.2332,0 -19.46191,9.119296 -7.17311,9.119297 -7.17311,24.855644 0,15.680744 7.17311,24.800034 7.22871,9.1193 19.46191,9.1193 12.2332,0 19.3507,-9.1193 7.17311,-9.11929 7.17311,-24.800034 0,-15.736347 -7.17311,-24.855644 -7.1175,-9.119296 -19.3507,-9.119296 z m 0,-9.119297 q 17.46012,0 27.91394,11.732754 10.45383,11.677148 10.45383,31.361483 0,19.628734 -10.45383,31.361484 -10.45382,11.67715 -27.91394,11.67715 -17.51572,0 -28.02516,-11.67715 -10.45382,-11.67715 -10.45382,-31.361484 0,-19.684335 10.45382,-31.361483 10.50944,-11.732754 28.02516,-11.732754 z"
     id="path830"
     style="font-size:113.88px;line-height:1.25;fill:#ffffff;stroke-width:2.84699" />
</svg>
